<svg xmlns="http://www.w3.org/2000/svg" width="294.943" height="420.635" viewBox="0 0 294.943 420.635">
  <g id="Group_265" data-name="Group 265" transform="translate(-1027.498 -129.365)">
    <path id="Path_1438" data-name="Path 1438" d="M96.086,49.362a1.481,1.481,0,0,1-1.366-.893c-.03-.083-1.427-3.938-7.64-12.494l-.107-.145c-2.837-3.908-6.37-8.771-5.936-14.14a15.151,15.151,0,0,1,25.378-9.657,14.877,14.877,0,0,1,4.77,10.872c0,4.75-2.887,8.732-5.675,12.58l-.415.573c-6.936,9.6-7.578,12.175-7.6,12.28a.885.885,0,0,1-.042.133,1.482,1.482,0,0,1-1.369.893ZM96.1,9.4q-.451,0-.909.028A13.627,13.627,0,0,0,82.452,21.8c-.392,4.858,2.973,9.489,5.675,13.21l.107.147c6.367,8.771,7.757,12.651,7.813,12.812l.07.021c.14-.555,1.128-3.484,7.819-12.747l.418-.575c2.66-3.668,5.409-7.464,5.409-11.763a13.29,13.29,0,0,0-4.321-9.848A13.642,13.642,0,0,0,96.1,9.4Z" transform="translate(946.498 161.302)" fill="#0d8989"/>
    <path id="Path_1439" data-name="Path 1439" d="M95.385,30.769a8.385,8.385,0,1,1,8.385-8.385A8.393,8.393,0,0,1,95.385,30.769Zm0-15.339a6.957,6.957,0,1,0,6.955,6.957A6.964,6.964,0,0,0,95.385,15.43Z" transform="translate(947.205 162.01)" fill="#0d8989"/>
    <path id="Path_1440" data-name="Path 1440" d="M332.513,26.334h9.8V45.941h-9.8" transform="translate(979.62 163.465)" fill="none" stroke="#0d8989" stroke-width="1"/>
    <path id="Path_1441" data-name="Path 1441" d="M323.744,20.487h9.8V46.63h-9.8" transform="translate(978.586 162.775)" fill="none" stroke="#0d8989" stroke-width="1"/>
    <path id="Path_1442" data-name="Path 1442" d="M314,47.55h10.893V12.692H314Z" transform="translate(977.436 161.856)" fill="none" stroke="#0d8989" stroke-width="1"/>
    <path id="Path_1617" data-name="Path 1617" d="M0,0H280.6l-2.848,324.06H-2.848Z" transform="translate(1041.332 224.641)" fill="none" stroke="#0d8989" stroke-width="1" stroke-dasharray="7 7"/>
    <g id="Group_264" data-name="Group 264" transform="translate(1044.59 129.365)">
      <path id="Path_1535" data-name="Path 1535" d="M178.778,90.8c11.1,5.551,22.532,5.185,30.43,14.48,10.546,12.41,16.071,35.751,18.339,52.76,1.14,8.553,2.039,37.155,2.039,37.155a124.342,124.342,0,0,1-13.928,3.849c-4.139.839-8.159.358-10.678,1.365-1.591.637-11.162,0-11.162,0s.466,9.417-.194,14.7a245.838,245.838,0,0,0-1.766,40.851c.412,10.087,2.075,20.553,1.358,30.576-.233,3.276-2.268,19.375-2.268,19.375s4.794,8.414,4.16,10.962c-1.064,4.252-7.02,2.855-10.209,2.644-5.762-.377-14.451-2.437-22.4-1.889-13.7.946-28.731,6.049-42.148,11.151-9.462,3.6-24.287,6.859-35.4,1.338-6.711-3.333-13.889-6.849-17.684-9.188-1.867-1.155-13.5-4.792-13.5-4.792l-1.906-2.916,2.408-6.476s-3.5-6.961-3.1-8.939c.928-4.637,5.884-10.116,7.039-15.777.731-3.59-1.294-15.606-1.469-18.609-.738-12.714-3.064-38.778.691-61.3,1.006-6.045-4.877-18.726-10.951-22.37-11.464-6.876-19.034-20.844-19.034-20.844s6.191-28.592,7.536-33.5,3.153-16.455,9.6-21.759c7.664-6.3,23.617-9.051,32.189-13.283a87.72,87.72,0,0,1,23.405-7.6s9.385,8.349,16.886,7.1c13.369-2.229,30.314-15.114,30.314-15.114s7.908,5.414,11.355,7.138Z" transform="translate(2.184 34.525)" fill="#2ac2bd" fill-rule="evenodd"/>
      <path id="Path_1536" data-name="Path 1536" d="M233.155,165.611a57.263,57.263,0,0,1,.8,12.373c-.272,5.587-.172,13.313-.287,18.884-.362,17.792-3.028,39.52-16.824,40.266-8.274.444-16.121,1.269-25.345-1.734-13.6-4.426-32.207-14.047-41.566-19.748-13.6-8.281-35.557-24.3-52.632-32.426-12.3-5.852-16.805-3.213-31.361-.032-7.417,1.624-15.19.75-21.755-3.941-4.593-3.282-6.771-4.741-9.886-9.192-3.077-4.4-9.047-12.373-7.514-18.514,2.472-9.886,34.3-8.528,34.3-8.528l4.02-5.777,7.325.365c4.353.936,7.141.807,10.41,2.15,6.388,2.62,8.477,6.493,12.852,11.076,4.612,4.83,14.456,8.482,20.185,11.244a273.167,273.167,0,0,0,41,15.3c6.64,1.813,14.323,4.672,20.747,7.173,2.329.906,11.631,5.353,11.631,5.353l-.409-11.329-.545-8.74s15.806,1.627,19.941,1.419C217.725,170.781,233.155,165.611,233.155,165.611Z" transform="translate(-0.898 63.382)" fill="#ffefe9" fill-rule="evenodd"/>
      <path id="Path_1537" data-name="Path 1537" d="M203.353,184.316s.276,8.521.123,11.3c-.3,5.425-.867,13.9-.326,19.318a27.745,27.745,0,0,1-.143,3.776s-8.407,2.476-9.908,2.007c-14.971-4.676-10.148-26.509-18.049-37.044l-9.074-1.943-2.267-5.353a18.207,18.207,0,0,1-2.938-5.991c-.5-2.434-.269-2.62-.269-2.62a6.256,6.256,0,0,1-1.835-3.465c-.279-2.1.716-4.888.479-5.185-1.156-1.444-1.988-4.168-3.131-5.548-3.02-3.652-6.192-5.926-8.138-10.553-.422-1-3.652-5.121-1.5-5.84,2.108-.7,9.182,4.092,10.174,5.087,4.776,4.777,13.111,13.915,17.941,18.745,6.091,6.094,2.913,9.926,10.145,14.745,5.543,3.694,18.719,8.556,18.719,8.556Z" transform="translate(-144.529 63.32)" fill="#ffefe9" fill-rule="evenodd"/>
      <path id="Path_1538" data-name="Path 1538" d="M94.026,36.425l-.806-.269Z" transform="translate(41.604 16.698)" fill="#ffefe9" fill-rule="evenodd"/>
      <path id="Path_1539" data-name="Path 1539" d="M148.263,42.6s4.712-4.167,8.338-4.773c6.378-1.064,7.883,10.736,6.325,15.415a17.479,17.479,0,0,1-3.307,6.185,12.927,12.927,0,0,1-5.088,3.075s-.029,14.667,1.093,19.149a30.34,30.34,0,0,0,7.83,14.355c3.3,3.6,4.178,3.963,4.178,3.963s-7.586,4.658-9.166,5.536c-6.98,3.881-13.8,11.7-22.027,10.051-5.887-1.175-11.116-.426-15.544-5.418a19.967,19.967,0,0,1-3-5.533s-8.832-1.018-12.341-4.526c-11.019-11.019-16.943-23.954-21.4-44.77-1.723-8.055-3.641-15.691.583-23.3,8.525-15.344,35.106-5.268,45.838,2.243,2.289,1.605,17.687,8.345,17.687,8.345Z" transform="translate(-15.877 11.085)" fill="#ffefe9" fill-rule="evenodd"/>
      <path id="Path_1540" data-name="Path 1540" d="M197.739,242.178s1.426,11.312,2.1,15.035c2.218,12.2,2.229,27.244,2.229,39.7,0,2.871-.559,12.538-.559,12.538l-151.818-.14s-.028-5.539.14-9.05c.558-11.56,2.089-29.046,5.017-42.621,1.028-4.78,3.615-17.644,3.615-17.644s6.694-.544,16.859,6.318,15.462,8.758,26.757,10.266c11.338,1.512,27.269-6.189,37.352-9.854a107.857,107.857,0,0,1,34.708-5.874c6.884.015,12.882,1.58,17.322,1.748a22.654,22.654,0,0,0,6.278-.412Z" transform="translate(-2.813 110.83)" fill="#3083d5" fill-rule="evenodd"/>
      <path id="Path_1541" data-name="Path 1541" d="M171.812,48.309s2.39-15.15,1.5-20.884a39.9,39.9,0,0,0-3.067-11c-1.337-3.021-3.87-5.808-6.063-8.385-4.888-5.737-11.2-5.859-17.118-6.178-4.546-.244-10.109-1.093-14.58-.111-3.966.874-6.859,3.436-10.731,5.375-3.143,1.573-5.641,1.34-8.737,3.074a36.1,36.1,0,0,0-10.366,8.664c-1.476,1.67-5.812,6.737-8.267,7.923-2.688,1.3-4.787-.226-5.594,1.985a20.785,20.785,0,0,0-.49,10.083c.813,4.282,2.089,8.371,4.919,11.807a24.771,24.771,0,0,0,3.953,1.673s1.193-5.361,3.111-6c1.724-.577,6.087.813,8.517.222,5.777-1.408,8.632-5.966,15.911-4.873,6.371.957,12.423,6.027,16.849,10.453,4.225,4.225,10.1,9.575,16.866,6.568,3.8-1.688,3.178-5.5,6.135-7.919,2.508-2.053,7.263-2.483,7.263-2.483Z" transform="translate(-30.112 0.595)" fill="#686868" fill-rule="evenodd"/>
      <path id="Path_1542" data-name="Path 1542" d="M185.507,146.568c-2.117-2.921-3.519-6.647-5.855-9.572-4.5-5.618-15.1-4.98-21.432-4.188-2.968.368-12.847-.383-12.19,4.188.462,3.247,3.311,6.157,5.049,8.762,2.2,3.3,6.052,10.936,6.052,10.936s5.22,1.914,7.854,4.017c1.465,1.171,2.59,3.19,4.383,3.906,3.41,1.365,8.582.146,12.287.763a75.129,75.129,0,0,0,12.385,1.523c.931,0,3.8.025,4.193-1.143.541-1.62-6.526-3.229-7.906-3.526-5.637-1.207-17.005.613-21.335-3.716-.988-.99-2.551-.906-3.239-2.286-.927-1.857,3.011-2.5,4-3.239s.655-2.394,1.9-3.143c2.247-1.348,5.168-1.859,7.716-2.286,1.39-.23,2.8-.341,4.193-.573.254-.042,2.057-.284,1.953-.43Z" transform="translate(-139.787 61.096)" fill="#939393" fill-rule="evenodd"/>
      <path id="Path_1543" data-name="Path 1543" d="M173.72,165.376c-4.48,2.988-9.733.158-14.478.158-1.067,0-5.808-1.148-6.371.354-.506,1.345,2.294,3.315,2.294,3.315l-9.435.38-.444-5.738s-.215-5.751-.044-5.837c.846-.422,7.429,1.34,8.267,1.691,2.742,1.148,14.348,4.017,14.348,4.017l5.866,1.659Z" transform="translate(-114.045 72.943)" fill="#939393" fill-rule="evenodd"/>
      <path id="Path_1544" data-name="Path 1544" d="M7.03,72.634a40.437,40.437,0,0,1,5.21-.251c1.666.183,5.855,2.813,7.374,2.053.394-.2,5.995,3.963,12.57,5.5,6.658,1.552,13.9,1.881,19.855,2.874,9.051,1.509,18.941,1.028,27.212,5.755,8.632,4.934,22.084,20.6,22.084,20.6s3.347,2.243,6.1,8.12,6.1,24.155,6.891,32.138c1.122,11.22,1.659,20.523,2.322,31.774.745,12.695,2.333,25.813,4.128,38.385.935,6.553,1.362,14.156.2,20.761-1.258,7.131-11.782,6.17-11.782,6.17s1.706,46.239-2.544,65.367c-1.835,8.264-6.579,20.822-12.968,29.251-5.318,7.012-9.381,8.3-16.136,11.193-6.088,2.612-18.9,1.53-18.9,1.53s-.921-11.882-1.1-13.455c-1.082-9.736-2.573-20.644-2.573-20.644s2.516-.2,2.322-3.289c-.19-3.014-3.039-5.086-3.68-9.765-.978-7.138,1.279-15.938,1.91-20.987.358-2.867-.254-19.738-.254-19.738s7.253.523,9.023.822c3.831.637,15.2-.921,18.5-2.91,5.07-3.057,8.765-13.721,9.843-32.067.548-9.331.3-33.224-.219-42.5-1.605-28.881-3.845-67.871-26.99-87.709-5.479-4.7-12.155-6.113-19.558-8.1A141.331,141.331,0,0,1,27.9,87.347c-9.188-3.938-14.333-8.5-20.869-14.717Z" transform="translate(139.948 33.425)" fill="#96c8fa" fill-rule="evenodd"/>
      <path id="Path_1545" data-name="Path 1545" d="M88.905,92.537a27.943,27.943,0,0,0-23.37-23.449c-5.952-.9-17.648.434-18.759,8.131-.115.8,4.461,2.741,5.189,2.415,1.677-.756,1.8-2.849,2.96-4.013,4.132-4.16,8.854-5.422,14.147-2.881,4.511,2.164,8.442,7.3,10.187,11.961a16.138,16.138,0,0,1,1.15,6.02c-.018.477-.727,1.419-.28,1.792C80.836,93.1,89.042,93.533,88.905,92.537Z" transform="translate(114.617 31.793)" fill="#939393" fill-rule="evenodd"/>
      <path id="Path_1546" data-name="Path 1546" d="M1.252,99.781c.387-1.387,3.125,1.466,3.934,2.376,3.121,3.507,6.253,7.506,7.21,12.287.609,3.057,1.781,5.891,2.128,9.008,1.319,11.9-.043,23.582,2.867,35.224.781,3.118,4.121,7.78,6.636,9.664.874.656,2.7,1.022,3.279,1.886.512.766-3.35,5.321-4.343,5.568-1.193.3-4.92-3.447-5.733-4.261-5.3-5.3-3.938-13.645-4.669-20.23-.77-6.952-.523-14.878-2.211-21.626-1.562-6.245-2.254-12.6-4.013-18.758C5.351,107.46.32,103.136,1.259,99.778Z" transform="translate(242.877 45.909)" fill="#939393" fill-rule="evenodd"/>
      <path id="Path_1547" data-name="Path 1547" d="M89.059,87.041c1.627,1.147-2.885,10.384-3.333,12.434-2.447,11.266-2.92,19.407-2.92,30.992,0,14.427,6.532,35.074,9.5,49.063.727,3.432,1.383,14.427,1.383,14.427s-6.052-3.329-6.823-4.146C82.1,184.762,76.138,179.648,73.3,173.226c-9.36-21.217-13.3-44.135-13.3-67.2,0-6.382,1.573-14.323,2.333-20.643.2-1.7,1.659-7.206,4.232-7.862s8.708,5.12,10.711,6.045c4.791,2.211,7.647.563,11.782,3.479Z" transform="translate(90.498 35.777)" fill="#939393" fill-rule="evenodd"/>
      <path id="Path_1548" data-name="Path 1548" d="M162.015,84.095s-3.823,5.794-4.242,6.321a72.553,72.553,0,0,0-5.454,8.485,88.314,88.314,0,0,0-9.867,25.018c-2.38,9.511-5.543,24.155-5.283,30.821.118,3.084-.26,5.314-.26,8.4,0,.605.26,5.02.26,5.02l-6.754.172s-.254-3.938-.348-4.673c-.734-5.865-.509-9.75-.778-15.669-.2-4.343.029-10.8.259-15.15.262-4.948,2.1-18.318,4.095-25.388a87.348,87.348,0,0,1,6.034-16.168s7.955-4.78,14.718-5.626c2.188-.276,7.618-1.559,7.618-1.559Z" transform="translate(-79.004 38.837)" fill="#939393" fill-rule="evenodd"/>
      <path id="Path_1549" data-name="Path 1549" d="M124.23,155.042c.164,3.486-3.454,7.526-4.6,11.022-.713,2.168-1.193,4.429-1.7,6.654-.87,3.871-8.667,11.231-8.872,3.311-.146-5.787,5.418-11.462,7.708-16.476.857-1.877,1.4-5.751,3-7.126C120.342,151.925,124.191,154.175,124.23,155.042Z" transform="translate(-11.756 70.361)" fill="#939393" fill-rule="evenodd"/>
      <path id="Path_1550" data-name="Path 1550" d="M135.924,53.227c0-1.211-.653-2.19-1.462-2.19S133,52.016,133,53.227s.653,2.2,1.462,2.2S135.924,54.443,135.924,53.227Z" transform="translate(-58.447 23.57)" fill="#383838" fill-rule="evenodd"/>
      <path id="Path_1551" data-name="Path 1551" d="M141.369,51.6a1.307,1.307,0,0,0,1.228-1.77c-1.63-4.347-2.655-10.66-.648-15.344a1.312,1.312,0,0,0-2.412-1.036c-2.909,6.794-.272,14.957.605,17.3a1.312,1.312,0,0,0,1.229.853Z" transform="translate(-72.816 15.083)" fill="#383838"/>
      <path id="Path_1552" data-name="Path 1552" d="M128.259,90.674a23.468,23.468,0,0,0,12.373-3.913c5.192-3.214,12.477-10.883,14.337-14.477a1.311,1.311,0,1,0-2.329-1.2c-1.477,2.859-8.346,10.331-13.383,13.452-5.758,3.565-11.3,4.415-16.486,2.541-12.836-4.647-20.3-24.409-22.281-30.354A1.312,1.312,0,0,0,98,57.55c2.659,7.984,10.313,27.079,23.876,31.992a18.648,18.648,0,0,0,6.385,1.132Z" transform="translate(-26.377 25.78)" fill="#383838"/>
      <path id="Path_1553" data-name="Path 1553" d="M131.256,67.1a1.312,1.312,0,0,0,.254-2.6,2.873,2.873,0,0,1-1.988-1.018c-.469-.8.025-2.315.459-3.655a14.951,14.951,0,0,0,.583-2.143,10,10,0,0,0-1.368-6,1.311,1.311,0,1,0-2.343,1.175,7.72,7.72,0,0,1,1.129,4.4,13.871,13.871,0,0,1-.5,1.763c-.573,1.774-1.289,3.977-.225,5.791A5.252,5.252,0,0,0,131,67.068a1.272,1.272,0,0,0,.259.025Z" transform="translate(-45.897 23.533)" fill="#383838"/>
      <path id="Path_1554" data-name="Path 1554" d="M117.011,46.731a1.326,1.326,0,0,0,.728-.219,10.167,10.167,0,0,1,8.084-1.423,1.311,1.311,0,0,0,.637-2.544,12.779,12.779,0,0,0-10.176,1.785,1.312,1.312,0,0,0,.727,2.4Z" transform="translate(-24.687 19.475)" fill="#383838"/>
      <path id="Path_1555" data-name="Path 1555" d="M134.654,49.113a1.317,1.317,0,0,0,.785-.262,4.674,4.674,0,0,1,3.067-.48,1.312,1.312,0,1,0,.462-2.583,7.2,7.2,0,0,0-5.1.964,1.313,1.313,0,0,0,.788,2.361Z" transform="translate(-63.073 21.095)" fill="#383838"/>
      <path id="Path_1556" data-name="Path 1556" d="M91.013,59.435c4.049,0,7.726-2.867,9.836-7.672,2.164-4.92,2.655-12.219-1.38-16.623a7.81,7.81,0,0,0-7.557-2.655,11.466,11.466,0,0,0-7.858,7.493,1.311,1.311,0,0,0,2.487.831,8.863,8.863,0,0,1,5.916-5.758,5.152,5.152,0,0,1,5.078,1.86c3.1,3.376,2.8,9.5.91,13.792-1.681,3.823-4.461,6.1-7.435,6.1a1.311,1.311,0,1,0,0,2.623Z" transform="translate(46.631 14.923)" fill="#383838"/>
      <path id="Path_1557" data-name="Path 1557" d="M90.755,46.887a1.311,1.311,0,0,0,1.175-.727,27.841,27.841,0,0,1,2.827-4.7A1.312,1.312,0,0,0,92.647,39.9a30.479,30.479,0,0,0-3.064,5.092,1.315,1.315,0,0,0,1.172,1.9Z" transform="translate(46.133 18.18)"/>
      <path id="Path_1558" data-name="Path 1558" d="M97.029,90.307a1.31,1.31,0,0,0,.688-2.426C82.825,78.718,81.592,66.209,81.592,53.119a1.311,1.311,0,1,0-2.623,0c0,13.308,1.34,27.129,17.376,36.994a1.3,1.3,0,0,0,.688.194Z" transform="translate(58.119 23.926)" fill="#383838"/>
      <path id="Path_1559" data-name="Path 1559" d="M100.831,92.281a31.832,31.832,0,0,0,10.011-1.72c4.855-1.62,9.725-4.977,13.638-7.675,2.834-1.957,5.515-3.806,7.163-4.253a1.311,1.311,0,1,0-.688-2.53c-2.078.566-4.805,2.447-7.966,4.626-3.974,2.741-8.475,5.848-12.979,7.346-9.191,3.067-20.665,2.025-24.137-7.493a1.312,1.312,0,0,0-2.466.9c2.53,6.934,9.15,10.8,17.419,10.8Z" transform="translate(17.478 35.125)" fill="#383838"/>
      <path id="Path_1560" data-name="Path 1560" d="M121.376,43.389a20.192,20.192,0,0,0,5.715-.885,1.311,1.311,0,0,0-.738-2.516c-8.875,2.612-13.341-1.845-17.655-6.156-2.6-2.6-5.064-5.06-8.331-5.805a1.312,1.312,0,1,0-.58,2.558c2.529.577,4.726,2.774,7.055,5.1C110.354,39.2,114.55,43.389,121.376,43.389Z" transform="translate(-0.51 12.93)" fill="#383838"/>
      <path id="Path_1561" data-name="Path 1561" d="M103.1,42.957a8.8,8.8,0,0,0,5.041-1.544,1.313,1.313,0,0,0-1.455-2.186c-2.448,1.63-4.8,1.172-7.621.4a1.311,1.311,0,1,0-.689,2.53,18.13,18.13,0,0,0,4.726.8Z" transform="translate(20.776 18.014)" fill="#383838"/>
      <path id="Path_1562" data-name="Path 1562" d="M121.7,32.44a1.285,1.285,0,0,0,.62-.158c1.716-.921,4.269-3.351,4.269-6.26a1.312,1.312,0,0,0-2.624,0c0,1.638-1.719,3.325-2.884,3.949a1.313,1.313,0,0,0,.623,2.469Z" transform="translate(-30.669 11.412)" fill="#383838"/>
      <path id="Path_1563" data-name="Path 1563" d="M134.372,36.627a16.37,16.37,0,0,0,4.755-.7A18.048,18.048,0,0,0,149.891,26.4a1.311,1.311,0,1,0-2.346-1.172,15.471,15.471,0,0,1-9.177,8.2,15.732,15.732,0,0,1-12.392-1.784,1.31,1.31,0,1,0-1.3,2.275,19.588,19.588,0,0,0,9.7,2.713Z" transform="translate(-59.418 11.314)" fill="#383838"/>
      <path id="Path_1564" data-name="Path 1564" d="M149.077,41.189a1.312,1.312,0,0,0,0-2.623c-5.708,0-7.217-7.507-7.217-11.477a1.311,1.311,0,1,0-2.623,0C139.237,33.879,142.316,41.189,149.077,41.189Z" transform="translate(-82.028 11.905)" fill="#383838"/>
      <path id="Path_1565" data-name="Path 1565" d="M143.579,25.214a9.811,9.811,0,0,0,1.457-.108,6.978,6.978,0,0,0,5.394-3.759,1.312,1.312,0,0,0-2.348-1.172,4.416,4.416,0,0,1-3.444,2.34,7.974,7.974,0,0,1-4.573-.742,1.311,1.311,0,0,0-1.171,2.347,10.612,10.612,0,0,0,4.684,1.1Z" transform="translate(-80.647 8.982)" fill="#383838"/>
      <path id="Path_1566" data-name="Path 1566" d="M127.608,26.1c6.5,0,10.123-4.547,13.624-8.944,3.408-4.278,6.622-8.317,12.368-8.317a1.311,1.311,0,0,0,0-2.623c-7.008,0-10.946,4.941-14.422,9.306-3.261,4.092-6.336,7.955-11.575,7.955a1.312,1.312,0,0,0,0,2.623Z" transform="translate(-67.629 2.872)" fill="#383838"/>
      <path id="Path_1567" data-name="Path 1567" d="M139.264,45.684a1.318,1.318,0,0,0,1.29-1.075,68.691,68.691,0,0,0,.624-18.873c-.849-8.131-4.124-14.512-9.736-18.97-7.048-5.6-17.719-7.833-30.057-6.289-3.9.487-10.965,2.713-13.743,5.934a1.311,1.311,0,1,0,1.985,1.713c2.2-2.551,8.54-4.6,12.081-5.045,11.627-1.451,21.607.588,28.1,5.744,5.038,4,7.984,9.786,8.758,17.189a66.991,66.991,0,0,1-.595,18.131,1.315,1.315,0,0,0,1.294,1.548Z" transform="translate(2.698 0)" fill="#383838"/>
      <path id="Path_1568" data-name="Path 1568" d="M57.28,262.059c14.129,0,16.2-13.506,18.024-25.434,1.555-10.173,1.906-33.207,1.258-48.34-.774-17.973-2.2-38.671-6.9-55.9-4.006-14.677-8.8-25.6-14.24-32.45-5.955-7.5-20.339-12.656-27.9-14.52a1.312,1.312,0,0,0-.627,2.548c7.238,1.785,20.962,6.658,26.477,13.606,5.217,6.575,9.851,17.179,13.764,31.512,4.633,16.973,6.042,37.489,6.808,55.316.645,15.01.3,37.81-1.229,47.829-2.078,13.575-4.411,23.206-15.44,23.206-.108,0-.212-.007-.326,0a1.311,1.311,0,0,0-.021,2.623h.355Z" transform="translate(157.176 39.431)" fill="#0e0e0e"/>
      <path id="Path_1569" data-name="Path 1569" d="M143.938,223.021a1.364,1.364,0,0,0,1.412-1.316,1.31,1.31,0,0,0-1.311-1.308.45.45,0,0,0-.1,0c-11.671,0-22.561-5.235-30.523-9.062-2.268-1.089-4.407-2.118-6.282-2.892-14.122-5.83-26.086-13.746-38.75-22.12-3.35-2.218-6.73-4.45-10.184-6.667-1.9-1.219-3.4-2.237-4.79-3.172-2.454-1.655-4.576-3.084-7.822-4.926a1.312,1.312,0,0,0-1.294,2.282c3.16,1.792,5.239,3.2,7.65,4.82,1.4.943,2.921,1.968,4.839,3.2,3.443,2.21,6.811,4.44,10.151,6.651,12.774,8.449,24.84,16.429,39.2,22.356,1.806.746,3.913,1.76,6.149,2.83,8.184,3.938,19.389,9.321,31.659,9.321Z" transform="translate(62.774 79.151)"/>
      <path id="Path_1570" data-name="Path 1570" d="M141.412,173.465a50.336,50.336,0,0,0,12.407-2.064c1.655-.418,3.364-.852,5.042-1.2,5.26-1.089,12.857-1.5,19.213,2.684a1.312,1.312,0,1,0,1.444-2.19c-5.625-3.7-12.95-4.766-21.185-3.063-1.731.358-3.472.8-5.156,1.228-4.644,1.18-9.027,2.286-13.632,1.906-4.84-.408-9.875-2.6-14.595-4.9a14.127,14.127,0,0,1-2.783-1.659,17.509,17.509,0,0,1,3.425.282c.462.072.849.126,1.111.143,1.222.086,2.731.355,4.326.639,2.919.519,5.936,1.053,8.385.738a10.985,10.985,0,0,0,5.23-1.832,1.31,1.31,0,1,0-1.63-2.052,9.011,9.011,0,0,1-3.938,1.279c-2.035.265-4.985-.254-7.582-.721a45.4,45.4,0,0,0-4.6-.67c-.21-.015-.529-.064-.909-.123-2.286-.341-5.419-.81-6.55,1.076a1.951,1.951,0,0,0-.19,1.576c.232.788.96,1.918,4.536,3.666,4.975,2.43,10.281,4.73,15.552,5.173.7.061,1.4.086,2.089.086Z" transform="translate(-82.398 74.619)"/>
      <path id="Path_1571" data-name="Path 1571" d="M178.322,171.42a31.922,31.922,0,0,0,3.34-.175,1.312,1.312,0,0,0-.272-2.609c-6.419.674-11.32-.857-16.054-2.336a59,59,0,0,0-6.514-1.77l-.854-.165c-4.429-.849-10.492-2.013-11.351-3.45a.183.183,0,0,1-.022-.183c.2-.642.753-.807,2.21-.953l.251-.025c5.02-.528,13.67,1,18.844,1.916l.4.072c.061.01,6.318.993,8.177-.741a1.96,1.96,0,0,0,.634-1.659c-.187-1.778-2.343-3.158-12.811-4.956-3.944-.678-6.163-.9-8.306-1.123s-4.181-.422-7.832-1.089c-1.975-.358-5.067-1.684-5.225-2.4.069-.155.645-.982,6.042-1.244.289-.015.534-.025.706-.039,7.457-.58,17.73.363,27.462,2.516a1.313,1.313,0,0,0,.57-2.563c-4.787-1.057-17.136-3.432-28.232-2.568-.155.01-.373.022-.634.035-3.573.175-7.464.56-8.365,2.953a2.6,2.6,0,0,0,.194,2.261c1.422,2.511,6.955,3.622,7.008,3.634,3.755.68,5.834.892,8.039,1.117,2.1.212,4.267.434,8.126,1.093,5.894,1.015,8.568,1.835,9.78,2.354a22.91,22.91,0,0,1-4.881-.164l-.4-.072c-5.306-.936-14.19-2.506-19.572-1.943l-.237.025c-1.386.14-3.7.37-4.454,2.785a2.775,2.775,0,0,0,.273,2.311c1.368,2.279,5.865,3.289,13.111,4.676l.852.165a57.72,57.72,0,0,1,6.229,1.7c3.966,1.241,8.373,2.617,13.77,2.617Z" transform="translate(-116.061 67.283)"/>
      <path id="Path_1572" data-name="Path 1572" d="M137.221,150.775a1.311,1.311,0,0,0,.892-2.272c-.336-.316-.365-.477-.365-.477.24-1.2,6.654-3.027,10.242-3.4,1.637-.171,3.22-.346,4.773-.519,8.933-1,16.647-1.859,25.926-.545a1.312,1.312,0,0,0,.368-2.6c-9.6-1.368-17.469-.487-26.585.535-1.544.171-3.124.351-4.751.519-.111.01-11.163,1.333-12.452,5.185a2.963,2.963,0,0,0,1.064,3.225,1.3,1.3,0,0,0,.892.351Z" transform="translate(-105.822 64.775)"/>
      <path id="Path_1573" data-name="Path 1573" d="M191.174,211.075a1.286,1.286,0,0,0,.459-.082,1.314,1.314,0,0,0,.77-1.688,39.089,39.089,0,0,0-15.831-19.4c-12.481-7.474-24-10.717-37.349-14.476l-3.5-.988a217.752,217.752,0,0,1-32.006-12.452c-1.232-.585-2.555-1.19-3.924-1.814-5.052-2.307-10.782-4.923-14.814-7.887a111.682,111.682,0,0,1-10.815-10.027c-4.178-4.232-7.847-4.583-12.494-5.027-.728-.072-1.487-.143-2.286-.232a22.2,22.2,0,0,1-2.257-.43,11.085,11.085,0,0,0-6.138-.183c-1.605.536-3.168,2.511-4.891,4.84-.287.387-.538.728-.731.968a1.312,1.312,0,1,0,2.038,1.652c.216-.265.488-.634.8-1.057.862-1.168,2.662-3.6,3.615-3.916a8.89,8.89,0,0,1,4.726.254,24.109,24.109,0,0,0,2.538.477c.816.094,1.59.168,2.336.24,4.44.422,7.371.7,10.879,4.261a111,111,0,0,0,11.126,10.3c4.247,3.124,10.109,5.8,15.276,8.163,1.354.62,2.665,1.215,3.887,1.8a220.722,220.722,0,0,0,32.415,12.605l3.5.99c13.161,3.709,24.531,6.912,36.711,14.2a36.337,36.337,0,0,1,14.724,18.062,1.311,1.311,0,0,0,1.229.854Z" transform="translate(13.524 62.816)" fill="#0e0e0e"/>
      <path id="Path_1574" data-name="Path 1574" d="M58.173,180.623a1.313,1.313,0,0,0,1.308-1.215c.168-2.275-.251-9.785-.656-16.644-.072-1.237-.129-2.207-.158-2.751a1.311,1.311,0,1,0-2.619.132c.029.548.086,1.531.158,2.775.269,4.546.828,14.007.659,16.3a1.313,1.313,0,0,0,1.211,1.4Z" transform="translate(130.45 73.323)"/>
      <path id="Path_1575" data-name="Path 1575" d="M98.63,289.413c10.392,0,20.318-3.728,29.989-7.36,7.36-2.763,14.967-5.619,22.561-6.708l1.15-.165c7.167-1.032,14.581-2.089,21.9-1.386,1.444.139,3.121.472,4.9.823,5.6,1.108,11.954,2.37,16.293-1.1,2.462-1.971.032-6.571-1.745-9.933a18.353,18.353,0,0,1-.91-1.845c-.6-2.716.09-6.521.7-9.876.272-1.49.527-2.894.663-4.149a140.541,140.541,0,0,0-.394-27.624,1.293,1.293,0,0,0-1.483-1.111,1.316,1.316,0,0,0-1.115,1.484,137.5,137.5,0,0,1,.383,26.972c-.125,1.156-.373,2.519-.634,3.959-.656,3.6-1.4,7.683-.677,10.926a12.283,12.283,0,0,0,1.15,2.491c2.881,5.454,2.655,6.474,2.426,6.662-3.39,2.709-9.105,1.576-14.147.58-1.842-.365-3.583-.71-5.153-.861-7.632-.744-15.2.348-22.525,1.4l-1.147.165c-7.876,1.126-15.623,4.035-23.112,6.849-12.861,4.83-25.012,9.391-38.231,6.084-7.539-1.886-12.874-5.289-19.055-9.234-1.34-.852-2.716-1.731-4.157-2.622a23.845,23.845,0,0,0-6.625-2.269c-2.172-.526-4.415-1.067-5.515-1.892-.86-.646.054-3.118.659-4.752.659-1.788,1.14-3.085.617-4.128-.262-.519-.513-1-.756-1.45a11.01,11.01,0,0,1-1.775-5.97c0-3.834,1.427-5.654,3.082-7.765a16.534,16.534,0,0,0,3.318-5.891c.691-2.415.227-7.847-.354-13.674-.123-1.229-.227-2.264-.273-2.953A214.16,214.16,0,0,1,58.2,200c.086-3.7-.064-10.649-.2-16.777-.094-4.321-.183-8.4-.183-10.948a1.312,1.312,0,0,0-2.624,0c0,2.573.089,6.673.183,11.009.133,6.1.284,13.015.2,16.659a217.525,217.525,0,0,0,.441,23.316c.045.709.154,1.778.279,3.039.393,3.948,1.053,10.559.444,12.692a14.05,14.05,0,0,1-2.864,5c-1.788,2.282-3.64,4.64-3.64,9.381a13.589,13.589,0,0,0,2.077,7.2c.215.4.437.824.671,1.282a12.5,12.5,0,0,1-.674,2.158c-.928,2.509-2.2,5.941.225,7.762,1.531,1.149,3.931,1.731,6.472,2.343a22.116,22.116,0,0,1,5.863,1.949c1.425.881,2.791,1.753,4.121,2.6,6.371,4.067,11.874,7.583,19.83,9.568a40.112,40.112,0,0,0,9.8,1.186Z" transform="translate(2 78.957)"/>
      <path id="Path_1576" data-name="Path 1576" d="M53.138,307.492a1.313,1.313,0,0,0,1.312-1.313v-1.655c0-19.249,0-39.155-2.745-58.416A1.3,1.3,0,0,0,50.221,245a1.314,1.314,0,0,0-1.114,1.482c2.723,19.074,2.723,38.886,2.72,58.046v1.656a1.312,1.312,0,0,0,1.311,1.311Z" transform="translate(145.683 113.139)"/>
      <path id="Path_1577" data-name="Path 1577" d="M116.658,301.018a.79.79,0,0,0,.186-.015,1.315,1.315,0,0,0,1.115-1.482,22.8,22.8,0,0,0-1.585-5.217,20.975,20.975,0,0,1-1.4-4.486,54.349,54.349,0,0,1-.151-10.664c.118-2.343.24-4.767.165-7.074-.1-3.128-.491-6.3-.871-9.367a87.347,87.347,0,0,1-.867-10.47,1.312,1.312,0,0,0-2.624,0,89.3,89.3,0,0,0,.889,10.793c.37,3.01.753,6.121.854,9.131.072,2.2-.044,4.457-.162,6.855a56.4,56.4,0,0,0,.177,11.195,23.173,23.173,0,0,0,1.554,5.048,20.568,20.568,0,0,1,1.427,4.631,1.311,1.311,0,0,0,1.3,1.124Z" transform="translate(-7.788 115.887)"/>
      <path id="Path_1578" data-name="Path 1578" d="M148.351,309.844a1.312,1.312,0,0,0,1.311-1.311c0-17.988,3.758-52.241,8.427-67.8a1.311,1.311,0,1,0-2.511-.756c-5.131,17.1-8.536,52.585-8.536,68.549a1.312,1.312,0,0,0,1.311,1.311Z" transform="translate(-101.197 110.398)"/>
      <path id="Path_1579" data-name="Path 1579" d="M54.65,176.35c.792,0,1.609-.022,2.451-.061,14.738-.728,20.45-2.8,24.427-4.926a1.312,1.312,0,0,0-1.236-2.316c-3.705,1.985-9.1,3.916-23.317,4.619-10.144.5-16.093-2.39-17.569-3.419-.161-10.481-4.622-29.953-7.278-39.96a1.312,1.312,0,1,0-2.537.674c2.673,10.069,7.2,29.795,7.2,39.857a1.509,1.509,0,0,0,.523,1.1c1.046,1,6.88,4.425,17.343,4.425Z" transform="translate(146.486 59.719)" fill="#0e0e0e"/>
      <path id="Path_1580" data-name="Path 1580" d="M65.02,145.832a1,1,0,0,0,.208-.018,1.31,1.31,0,0,0,1.089-1.5c-1.666-10.456-2.87-21.644.677-43.358a90.493,90.493,0,0,1,4.357-16.48L68.879,83.6l1.243.416-1.261-.365A92.427,92.427,0,0,0,64.4,100.532c-3.608,22.1-2.379,33.519-.677,44.193a1.311,1.311,0,0,0,1.294,1.1Z" transform="translate(109.814 38.608)" fill="#0e0e0e"/>
      <path id="Path_1581" data-name="Path 1581" d="M91.274,191.455a1.31,1.31,0,0,0,.713-2.412c-18.214-11.771-28.165-54.745-27.28-80.377.28-8.088,1.315-18.941,3.383-25.14.072-.219.158-.509.251-.849.76-2.684,1.254-3.39,1.534-3.508,2.684-.6,4.454.989,6.507,2.824a19.961,19.961,0,0,0,3.221,2.5c1.8,1.043,4.554,1.63,7.217,2.2A27.936,27.936,0,0,1,92.574,88.3a1.312,1.312,0,0,0,1.172-2.347,28.745,28.745,0,0,0-6.378-1.827,25.65,25.65,0,0,1-6.45-1.9,17.852,17.852,0,0,1-2.788-2.19c-2.261-2.021-4.823-4.318-8.84-3.422-2.1.466-2.928,3.408-3.476,5.354-.082.29-.154.545-.215.731-2.157,6.468-3.229,17.612-3.515,25.882-.885,25.7,8.747,69.921,28.477,82.67a1.292,1.292,0,0,0,.71.212Z" transform="translate(86.754 35.29)" fill="#0e0e0e"/>
      <path id="Path_1582" data-name="Path 1582" d="M130.9,169.324a1.241,1.241,0,0,0,.273-.028,1.313,1.313,0,0,0,1.013-1.555c-1.605-7.634-2.042-25.048-.939-37.266,1.326-14.631,6.156-32.082,8.644-36.26,1.83-3.075,7-5.085,11.81-6.644a43.385,43.385,0,0,1,8.08-1.713c-2.956,3.863-8.653,11.685-11.491,18.1A149.71,149.71,0,0,0,135.8,162.322a1.311,1.311,0,1,0,2.622,0,146.978,146.978,0,0,1,12.266-57.3c3.712-8.389,12.9-19.773,12.993-19.887a1.311,1.311,0,0,0,.158-1.4,1.245,1.245,0,0,0-1.212-.731,46.289,46.289,0,0,0-11.738,2.082c-5.543,1.8-10.987,3.985-13.259,7.8-2.916,4.906-7.739,23.481-9,37.363-1.148,12.649-.7,30.071.981,38.044a1.317,1.317,0,0,0,1.284,1.044Z" transform="translate(-79.184 38.326)" fill="#1e1d1d"/>
      <path id="Path_1583" data-name="Path 1583" d="M119.506,86.78a1.269,1.269,0,0,0,.257-.025,48.267,48.267,0,0,0,4.931-1.394,47.754,47.754,0,0,1,9.5-2.3,1.312,1.312,0,0,0-.287-2.609,50.192,50.192,0,0,0-10.009,2.408,46.441,46.441,0,0,1-4.65,1.322,1.312,1.312,0,0,0,.254,2.6Z" transform="translate(-36.232 37.152)"/>
      <path id="Path_1584" data-name="Path 1584" d="M145.665,152.685a1.308,1.308,0,0,0,1.283-1.054c.874-4.364,1.687-8.692,2.457-12.788,1.788-9.492,3.333-17.691,4.79-22.066.294-.889.592-1.827.9-2.795,1.81-5.689,4.057-12.774,8.274-16.358,4.934-4.193,12.086-6.149,12.158-6.171a1.311,1.311,0,1,0-.677-2.533c-.316.086-7.784,2.121-13.177,6.7-4.79,4.071-7.166,11.552-9.076,17.562-.3.956-.6,1.881-.892,2.758-1.513,4.545-3.071,12.825-4.877,22.411-.77,4.084-1.585,8.4-2.454,12.76a1.308,1.308,0,0,0,1.286,1.569Z" transform="translate(-115.614 41.046)" fill="#1e1d1d"/>
      <path id="Path_1585" data-name="Path 1585" d="M176.448,160.547c2.434,0,4.687-.67,5.268-2.358s-.681-3.393-3.763-5.037a21.16,21.16,0,0,1-4.286-3.229c-1.612-1.469-3.282-3-5.116-1.81-3.519,2.276-3.9,4.536-3.595,6.034.664,3.274,5.113,5.5,8.97,6.175a14.5,14.5,0,0,0,2.519.225Zm-7.185-11.334.721,1.1a10.328,10.328,0,0,1,1.921,1.551,23.4,23.4,0,0,0,4.815,3.6c2.3,1.225,2.5,1.963,2.506,1.968-.2.193-1.992.805-4.844.3-3.44-.605-6.515-2.45-6.854-4.114-.254-1.264,1.188-2.5,2.447-3.311l-.713-1.1Z" transform="translate(-150.969 68.206)"/>
      <path id="Path_1586" data-name="Path 1586" d="M180.764,167.132a2.47,2.47,0,0,0,2.656-1.845c.652-2.763-3.592-7.93-4.95-8.612a1.31,1.31,0,0,0-1.193,2.333c.957.617,3.53,4.264,3.6,5.5h-.111c-3.068,0-12.037-2.612-14.148-6.553a3.325,3.325,0,0,1,.351-3.7,1.313,1.313,0,0,0-2.185-1.455,5.93,5.93,0,0,0-.481,6.4c2.76,5.156,12.915,7.938,16.459,7.938Z" transform="translate(-150.721 70.294)"/>
      <path id="Path_1587" data-name="Path 1587" d="M178.3,170.325a3.922,3.922,0,0,0,3.02-1.136c1.032-1.155,1.058-2.935.072-5.289a1.312,1.312,0,0,0-2.422,1.01c.671,1.6.563,2.343.395,2.529-.284.32-1.444.395-2.9-.028-4.435-1.308-9.724-3.852-9.724-8.56a1.312,1.312,0,0,0-2.624,0c0,5.01,4.014,8.84,11.61,11.079a9.469,9.469,0,0,0,2.57.4Z" transform="translate(-150.132 72.756)"/>
      <path id="Path_1588" data-name="Path 1588" d="M172.955,172.678a5.878,5.878,0,0,0,.914-.072c.054-.007,5.306-.881,5.966-3.619.193-.8.072-2.014-1.605-3.244a1.313,1.313,0,1,0-1.551,2.118c.529.387.6.6.6.605-.235.459-2.593,1.351-3.83,1.552-1.526.232-4.111-.656-6.131-2.14a6.826,6.826,0,0,1-2.978-4.055,1.313,1.313,0,1,0-2.6.383,9.261,9.261,0,0,0,4.02,5.787,13.113,13.113,0,0,0,7.185,2.684Z" transform="translate(-144.423 75.141)"/>
      <path id="Path_1589" data-name="Path 1589" d="M168.928,167.177a1.312,1.312,0,0,0,.222-2.6c-2.286-.4-10.5-.057-11.424-.018a1.311,1.311,0,0,0-1.254,1.365,1.358,1.358,0,0,0,1.365,1.254c2.444-.1,9.167-.316,10.861-.018a1.669,1.669,0,0,0,.225.018Z" transform="translate(-127.07 75.915)"/>
      <path id="Path_1590" data-name="Path 1590" d="M167.121,157.8a1.312,1.312,0,0,0,1.067-2.071c-5.479-7.7-11.291-16.523-11.813-18.346a3.453,3.453,0,0,0-.044-1.409,2.366,2.366,0,0,1-.064-.555s.355-.494,2.832-.77,5.8-.326,9.338-.38c1.3-.018,2.618-.039,3.924-.072,5.736-.136,12.247-.294,14.053.607,1.069.534,2.75,3.4,3.75,5.106l.561.953c2.232,3.731,3.659,6.336,3.674,6.36a1.313,1.313,0,1,0,2.3-1.259c-.015-.025-1.459-2.672-3.723-6.453l-.551-.936c-1.743-2.97-3.2-5.306-4.837-6.124-2.39-1.194-8.368-1.051-15.291-.886-1.294.032-2.6.05-3.9.072-3.6.054-7,.108-9.593.4-2.484.276-3.916.839-4.647,1.824a3.1,3.1,0,0,0-.4,2.59,2.766,2.766,0,0,1,.057.395c-.251.573-.832,2.028,12.24,20.4a1.3,1.3,0,0,0,1.072.553Z" transform="translate(-149.562 60.71)"/>
      <path id="Path_1591" data-name="Path 1591" d="M189.771,159.656a1.261,1.261,0,0,0,.583-.14,1.311,1.311,0,0,0,.588-1.759,47.757,47.757,0,0,0-6.564-8.984c-2.476-2.9-4.817-5.64-6.1-8.37a7.034,7.034,0,0,1-.646-1.827,12.648,12.648,0,0,1,3.767,1.455,1.311,1.311,0,0,0,1.175-2.343c-2.563-1.279-5.412-2.523-6.9-1.074-1.279,1.247-.484,3.4.225,4.912,1.434,3.049,4,6.053,6.479,8.96a45.874,45.874,0,0,1,6.214,8.452,1.308,1.308,0,0,0,1.175.728Z" transform="translate(-174.999 62.79)"/>
      <path id="Path_1592" data-name="Path 1592" d="M193.023,147.026a1.313,1.313,0,0,0,1.164-1.914,60.674,60.674,0,0,0-3.462-5.926c-.437-.617-.784-1.187-1.1-1.7-1.092-1.8-2.121-3.491-5.21-3.508-7.324-.042-18.371.279-24.313.452l-2.756.079a1.312,1.312,0,0,0,.037,2.622h.035l2.763-.075c5.928-.172,16.965-.474,24.224-.452,1.62.01,1.963.573,2.981,2.25.345.563.724,1.187,1.2,1.861a58.329,58.329,0,0,1,3.26,5.6,1.318,1.318,0,0,0,1.169.713Z" transform="translate(-150.588 61.873)"/>
      <path id="Path_1593" data-name="Path 1593" d="M162.813,205.047a25.426,25.426,0,0,0,9.345-2.21,1.312,1.312,0,0,0-1.107-2.38c-.072.035-7.031,3.215-11.3,1.44-6.819-2.842-9.392-15.168-11.094-23.319-.373-1.789-.718-3.429-1.061-4.809a1.311,1.311,0,0,0-2.544.637c.336,1.351.674,2.957,1.039,4.709,1.924,9.212,4.558,21.834,12.652,25.2a10.542,10.542,0,0,0,4.064.728Z" transform="translate(-113.004 79.791)"/>
      <path id="Path_1594" data-name="Path 1594" d="M112.745,181.595a9.026,9.026,0,0,0,1.782-.19c1.741-.348,4.213-5.382,5.092-7.873a32.83,32.83,0,0,0,1.526-7.2c.7-1.595,1.153-2.662,1.506-3.486,1-2.329,1.124-2.627,3.375-7.131a1.313,1.313,0,0,0-2.348-1.175c-2.286,4.573-2.44,4.935-3.444,7.274-.365.854-.842,1.971-1.583,3.666a1.479,1.479,0,0,0-.108.427,30.644,30.644,0,0,1-1.4,6.754,20.729,20.729,0,0,1-3.353,6.214,3.113,3.113,0,0,1-2.81-.516c-.727-.824-.738-2.592-.025-4.73,1.032-3.1,5.533-9.758,5.575-9.822a1.3,1.3,0,0,0,.136-.262c.026-.064,2.573-6.6,4.508-10.47a1.312,1.312,0,0,0-2.346-1.175c-1.857,3.712-4.165,9.563-4.555,10.559-.656.979-4.733,7.113-5.808,10.342-1.044,3.124-.849,5.716.544,7.3a4.734,4.734,0,0,0,3.733,1.5Z" transform="translate(-11.846 69.819)"/>
      <path id="Path_1595" data-name="Path 1595" d="M75.839,146.45a5.479,5.479,0,0,0,3.49-1.552c1.2-1.028,1.193-3.755.634-14.963-.1-2.061-.215-4.276-.312-6.583-.684-16.043,1.279-28.8,5.834-37.9a1.312,1.312,0,1,0-2.347-1.172c-4.823,9.646-6.823,22.464-6.11,39.19.1,2.316.211,4.538.312,6.6.287,5.751.584,11.7.15,12.946-.6.491-1.4.972-2.01.746-2.25-.842-3.347-8.255-3.759-11.047-.09-.61-.168-1.129-.237-1.526C68.773,115.819,69.2,94,76.255,79.883a1.312,1.312,0,0,0-2.347-1.172c-7.324,14.649-7.794,37.141-5.006,52.937.068.376.14.874.226,1.455.839,5.679,2.021,11.842,5.436,13.118a3.565,3.565,0,0,0,1.276.232Z" transform="translate(87.858 36.016)" fill="#0e0e0e"/>
      <path id="Path_1596" data-name="Path 1596" d="M137.224,141.628c3.82,0,5.413-6.89,6.467-13.63l.039-.254c.735-4.669,3.511-20.716,8.3-31.093l.523-1.157c1.323-2.949,3.136-6.991,5.765-8.306a1.311,1.311,0,0,0-1.171-2.347c-3.466,1.734-5.5,6.271-6.985,9.578l-.513,1.132c-4.793,10.4-7.549,25.689-8.509,31.784l-.039.254C139.333,138.872,137.309,139,137.224,139a1.311,1.311,0,1,0,0,2.623Z" transform="translate(-85.823 39.118)" fill="#1e1d1d"/>
      <path id="Path_1597" data-name="Path 1597" d="M100.343,84.661a1.311,1.311,0,1,0,0-2.623c-8.675,0-19.045-1.957-25.811-4.866-1.15-.495-2.225-.975-3.254-1.43-5.848-2.6-10.073-4.486-16.77-4.486a1.312,1.312,0,1,0,0,2.623c6.138,0,10.152,1.788,15.7,4.257,1.036.459,2.121.942,3.282,1.444,7.17,3.085,17.709,5.078,26.846,5.078Z" transform="translate(92.48 32.908)" fill="#1e1d1d"/>
      <path id="Path_1598" data-name="Path 1598" d="M57.915,102.1a1.262,1.262,0,0,0,.584-.14,1.312,1.312,0,0,0,.588-1.759c-5.651-11.3-20.819-20.851-33.124-20.851a1.311,1.311,0,1,0,0,2.623c11.23,0,25.614,9.066,30.781,19.4a1.31,1.31,0,0,0,1.175.724Z" transform="translate(176.639 36.643)" fill="#0e0e0e"/>
      <path id="Path_1599" data-name="Path 1599" d="M13.6,343.9c20.568,0,34.124-15.642,40.294-46.495,2.516-12.581,2.111-29.827,1.749-45.042-.115-4.938-.226-9.6-.226-13.77,0-5.881,1.419-30.3,2.229-38.424,2.035-20.331,2.236-38.062.624-54.209-1.19-11.917-3.322-25.928-10.091-39.466-.416-.827-.817-1.756-1.233-2.716-1.136-2.626-2.426-5.6-4.411-7.586a1.313,1.313,0,0,0-1.856,1.856c1.627,1.63,2.763,4.246,3.859,6.773.437,1,.856,1.973,1.29,2.845,6.579,13.158,8.657,26.871,9.825,38.553,1.6,15.97,1.394,33.533-.623,53.688-.839,8.378-2.243,32.6-2.243,38.683,0,4.2.111,8.879.226,13.83.355,15.079.76,32.167-1.7,44.466-5.891,29.451-18.583,44.387-37.722,44.387a1.311,1.311,0,1,0,0,2.623Z" transform="translate(194.602 44.246)" fill="#0e0e0e"/>
      <path id="Path_1600" data-name="Path 1600" d="M35.936,225.087c7.579,0,13.609-2.519,16.541-6.916a1.313,1.313,0,0,0-2.186-1.455c-2.437,3.65-7.668,5.746-14.358,5.746-8,0-15.62-3.045-18.529-7.406a1.314,1.314,0,0,0-2.186,1.457c3.949,5.923,13.248,8.575,20.711,8.575Z" transform="translate(197.278 99.05)"/>
      <path id="Path_1601" data-name="Path 1601" d="M40.875,288.228a1.266,1.266,0,0,0,.584-.14c7.435-3.716,9.116-13.212,10.463-20.844l.279-1.57c3.168-17.415,3.15-34.116,3.135-51.8v-3.63a1.313,1.313,0,0,0-2.626,0v3.634c.018,17.558.032,34.145-3.092,51.328l-.283,1.58c-1.247,7.052-2.8,15.823-9.055,18.951a1.314,1.314,0,0,0,.588,2.488Z" transform="translate(158.738 96.492)"/>
      <path id="Path_1602" data-name="Path 1602" d="M49.863,253.713a1.311,1.311,0,1,0,0-2.623c-3.5,0-7.339-4.328-9.188-6.407-6.468-7.274-11.871-15.494-17.1-23.442-1.111-1.688-2.218-3.372-3.336-5.049a1.313,1.313,0,0,0-2.186,1.455q1.672,2.511,3.325,5.035c5.278,8.027,10.736,16.326,17.329,23.74,2.261,2.548,6.472,7.289,11.148,7.289Z" transform="translate(194.649 99.574)"/>
      <path id="Path_1603" data-name="Path 1603" d="M48.4,263.806a1.312,1.312,0,0,0,.416-2.555c-11.287-3.763-16.028-13.459-21.048-23.728q-.839-1.721-1.695-3.444a1.311,1.311,0,0,0-2.347,1.171c.57,1.143,1.129,2.286,1.688,3.426,5.268,10.778,10.245,20.958,22.575,25.069a1.4,1.4,0,0,0,.416.067Z" transform="translate(187.704 107.769)"/>
      <path id="Path_1604" data-name="Path 1604" d="M47.613,266.811a1.311,1.311,0,1,0,0-2.623c-6.228,0-12.782-9.647-14.752-14.567a1.312,1.312,0,1,0-2.437.975c2.032,5.081,9.181,16.219,17.186,16.219Z" transform="translate(178.638 114.902)"/>
      <path id="Path_1605" data-name="Path 1605" d="M25.306,232.228a1.314,1.314,0,0,0,.333-2.585c-2.118-.555-5.877-5.324-7.819-9.212a1.312,1.312,0,1,0-2.347,1.172c1.207,2.411,5.543,9.538,9.5,10.578a1.392,1.392,0,0,0,.333.042Z" transform="translate(222.865 101.466)"/>
      <path id="Path_1606" data-name="Path 1606" d="M19.637,273.836c6.4,0,17.268-5.331,17.386-5.393,9.381-4.691,24.4-17.321,26.846-29.548a1.312,1.312,0,0,0-2.573-.516c-2.175,10.872-16.175,23.084-25.445,27.718-2.544,1.272-12.936,5.833-17.315,5.027a1.31,1.31,0,1,0-.484,2.576,8.836,8.836,0,0,0,1.584.133Z" transform="translate(183.176 109.604)"/>
      <path id="Path_1607" data-name="Path 1607" d="M16.644,262.191a1.251,1.251,0,0,0,.362-.05c13.162-3.758,26.14-13.075,34.719-24.921a66.5,66.5,0,0,0,4.923-8.881,1.312,1.312,0,1,0-2.383-1.1,65.22,65.22,0,0,1-4.665,8.439c-8.245,11.388-20.7,20.335-33.314,23.94a1.309,1.309,0,0,0,.362,2.568Z" transform="translate(192.712 104.593)"/>
      <path id="Path_1608" data-name="Path 1608" d="M27.664,241.316a1.438,1.438,0,0,0,.38-.053c6.876-2.064,20.024-11.271,20.024-19.515a1.311,1.311,0,0,0-2.623,0c0,6.672-11.94,15.136-18.157,17a1.313,1.313,0,0,0,.376,2.57Z" transform="translate(185.308 101.804)"/>
      <path id="Path_1609" data-name="Path 1609" d="M19.778,236.756a7.974,7.974,0,0,0,5.561-2.042c6.124-5.583,3.745-21.024,2.6-28.444-.1-.649-.186-1.219-.254-1.7-2.164-15.147-3.239-30.8-4.282-45.942-.623-9.084-1.272-18.479-2.143-27.656-.968-10.144-3.347-24.724-12.828-34.209a1.313,1.313,0,0,0-1.856,1.856c8.883,8.884,11.144,22.862,12.072,32.6.871,9.141,1.516,18.518,2.139,27.585,1.043,15.19,2.125,30.891,4.3,46.135.072.487.161,1.067.262,1.723.989,6.425,3.307,21.474-1.777,26.108-1.512,1.376-3.608,1.7-6.411,1a1.311,1.311,0,1,0-.638,2.544A13.338,13.338,0,0,0,19.778,236.756Z" transform="translate(233.481 44.51)" fill="#0e0e0e"/>
      <path id="Path_1610" data-name="Path 1610" d="M25.024,178.692a1.707,1.707,0,0,0,.351-.035c1.415-.273,3.375-2.763,5.834-7.4a1.315,1.315,0,0,0-.756-1.859A12.83,12.83,0,0,1,24.5,164.9a21.155,21.155,0,0,1-3.44-7.8l-.262-.918c-1.749-6.119-1.949-13.348-2.146-20.334-.43-15.352-.871-31.222-16.752-39.159A1.312,1.312,0,0,0,.726,99.035c14.473,7.235,14.874,21.64,15.3,36.887.2,7.153.4,14.545,2.247,20.985l.258.914a23.656,23.656,0,0,0,3.78,8.539,14.864,14.864,0,0,0,5.88,4.934,26.672,26.672,0,0,1-3.092,4.555c-2.591-2.276-6.629-6.39-8.177-11.037a1.31,1.31,0,1,0-2.487.827c1.856,5.572,6.733,10.316,9.474,12.646a1.693,1.693,0,0,0,1.111.408Z" transform="translate(240.54 44.589)" fill="#0e0e0e"/>
      <path id="Path_1611" data-name="Path 1611" d="M60.2,98.973a1.312,1.312,0,0,0,.928-2.24C54,89.609,32.63,86.467,27.943,89.505a1.311,1.311,0,0,0,1.43,2.2c3.544-2.3,23.36.344,29.9,6.88a1.311,1.311,0,0,0,.928.383Z" transform="translate(170.416 40.802)" fill="#0e0e0e"/>
      <path id="Path_1612" data-name="Path 1612" d="M84.011,93.578a1.311,1.311,0,0,0,.412-2.555c-1.43-.477-5.554-.681-7.808-.76a21.826,21.826,0,0,0-1.659-7.987C72.169,75.751,64.063,68.85,56.918,69.362c-3.551.258-7.095,3.01-10.535,8.17a1.313,1.313,0,0,0,2.186,1.455c2.928-4.39,5.88-6.815,8.543-7.009,5.776-.408,13.047,5.744,15.437,11.327a19.315,19.315,0,0,1,1.426,8.123,1.326,1.326,0,0,0,.333.985,1.3,1.3,0,0,0,.942.434,53.73,53.73,0,0,1,8.349.663,1.279,1.279,0,0,0,.416.068Z" transform="translate(119.095 32.021)" fill="#121212"/>
      <path id="Path_1613" data-name="Path 1613" d="M90.024,94.558a1.312,1.312,0,0,0,1.311-1.312c0-6.844-3.418-13.667-9.377-18.716-6.575-5.569-15.111-8.131-22.826-6.844-6.131,1.021-11.216,4.49-12.954,8.84a1.312,1.312,0,1,0,2.437.975c1.4-3.515,5.7-6.35,10.951-7.224,6.959-1.157,14.7,1.179,20.7,6.257,5.371,4.551,8.449,10.642,8.449,16.712A1.312,1.312,0,0,0,90.024,94.558Z" transform="translate(113.198 31.109)"/>
      <path id="Path_1614" data-name="Path 1614" d="M45.541,269.37a1.309,1.309,0,0,0,1.3-1.164,168.375,168.375,0,0,0,.605-24.091c-.122-4.429-.226-8.256.018-11.439l.315-4.062c2.569-33.074,5.766-74.236-3.9-105.152-3.866-12.377-8.478-20.343-21.765-26.987a1.312,1.312,0,0,0-1.172,2.347c12.517,6.26,16.7,13.473,20.436,25.423,9.514,30.437,6.339,71.32,3.787,104.167l-.315,4.068c-.254,3.318-.15,7.21-.025,11.709a164.506,164.506,0,0,1-.591,23.725,1.312,1.312,0,0,0,1.157,1.452c.05,0,.1.007.147.007Z" transform="translate(191.919 44.492)" fill="#0e0e0e"/>
      <path id="Path_1615" data-name="Path 1615" d="M121.385,51.19a2.193,2.193,0,1,0-2.193,2.2A2.189,2.189,0,0,0,121.385,51.19Z" transform="translate(-20.519 22.629)" fill="#383838" fill-rule="evenodd"/>
      <path id="Path_1616" data-name="Path 1616" d="M122.575,71.884c3.131,0,6.664-1.381,8.315-3.643a1.387,1.387,0,0,0-.3-1.935,1.372,1.372,0,0,0-1.927.3c-1.671,2.291-6.672,3.151-8.55,1.957a1.383,1.383,0,0,0-1.472,2.341A7.368,7.368,0,0,0,122.575,71.884Z" transform="translate(-31.753 30.498)" fill="#383838"/>
    </g>
  </g>
</svg>
